<?xml version="1.0" standalone="no"?>
<!DOCTYPE svg PUBLIC "-//W3C//DTD SVG 20010904//EN"
 "http://www.w3.org/TR/2001/REC-SVG-20010904/DTD/svg10.dtd">
<svg version="1.0" xmlns="http://www.w3.org/2000/svg"
 width="47.000000pt" height="252.000000pt" viewBox="0 0 47.000000 252.000000"
 preserveAspectRatio="xMidYMid meet">
<metadata>
Created by potrace 1.10, written by Peter Selinger 2001-2011
</metadata>
<g transform="translate(0.000000,252.000000) scale(0.050000,-0.050000)"
fill="#000000" stroke="none">
<path d="M407 4976 c-11 -14 -95 -197 -186 -406 l-166 -380 -3 -1000 c-1 -635
5 -1013 18 -1035 14 -24 12 -47 -5 -75 -33 -52 -33 -364 -1 -396 24 -24 56
-339 96 -944 21 -326 22 -332 103 -502 l82 -172 120 2 119 2 78 153 77 154 41
516 c61 772 62 784 93 795 36 14 38 335 2 392 -20 32 -20 48 0 80 29 45 35
372 7 389 -10 6 -13 356 -7 816 l10 805 -182 410 c-187 423 -231 482 -296 396z
m193 -455 c-11 -22 -36 -48 -55 -60 -31 -17 -31 -20 -2 -20 134 -3 270 -401
137 -401 -56 0 -60 5 -60 76 0 90 -82 184 -161 184 -65 0 -159 -117 -159 -199
0 -54 -6 -61 -60 -61 -41 0 -60 10 -60 31 0 19 -10 26 -25 17 -20 -11 -20 -8
0 13 14 15 25 46 25 70 0 80 161 268 230 268 39 1 81 22 120 60 70 68 100 78
70 22z m-227 -746 c-12 -45 3 -95 29 -95 10 0 18 35 18 79 0 182 75 227 79 48
2 -125 61 -171 61 -48 0 81 22 181 41 181 32 0 70 -371 39 -390 -11 -7 -20
-37 -20 -66 -1 -93 -22 -107 -162 -100 l-128 6 -6 75 c-4 41 -15 75 -26 75
-25 0 -20 249 8 340 l21 70 28 -68 c15 -38 23 -86 18 -107z m-142 -119 c18
-54 -34 -104 -89 -87 -46 15 -58 87 -20 125 31 31 94 9 109 -38z m609 -14 c0
-55 -56 -95 -97 -69 -47 30 -53 90 -12 120 44 32 109 2 109 -51z m-624 -126
c55 -55 -9 -152 -77 -115 -22 11 -38 31 -37 45 1 18 4 18 11 -1 14 -34 80 -32
94 4 17 44 -40 82 -77 51 -16 -14 -30 -16 -30 -6 0 49 75 63 116 22z m603 -5
c42 -50 17 -101 -49 -101 -41 0 -62 11 -66 36 -8 41 29 94 66 94 14 0 36 -13
49 -29z m-90 -322 c72 -120 91 -169 91 -241 l0 -90 -95 6 -95 6 -11 110 c-34
323 -319 306 -319 -18 l0 -104 -95 6 -95 6 -5 80 c-4 67 11 106 95 235 l99
155 169 0 169 0 92 -151z m-309 -179 c0 -61 6 -70 50 -70 44 0 50 9 50 70 0
49 9 70 30 70 24 0 30 -29 30 -138 0 -83 12 -160 30 -195 50 -95 39 -179 -30
-230 -71 -53 -78 -85 -15 -73 34 6 46 -2 49 -33 6 -55 16 -91 43 -157 13 -31
23 -64 23 -73 0 -9 14 -28 31 -41 25 -21 29 -70 25 -268 l-6 -242 -55 -6 c-61
-7 -88 -69 -68 -151 10 -38 22 -45 73 -37 l60 9 0 -346 0 -345 -81 -107 -80
-107 -115 1 c-112 1 -115 2 -189 98 l-75 97 0 352 c0 344 1 352 42 352 75 0
117 -77 117 -215 l1 -125 110 0 110 0 4 145 c2 80 1 163 -1 185 -2 22 -6 69
-8 105 -5 65 -5 65 -117 65 -110 0 -111 -1 -103 -55 4 -30 -2 -77 -14 -105
-20 -46 -21 -44 -13 24 13 109 -5 156 -60 156 -70 0 -85 51 -81 284 3 165 11
221 37 249 18 20 47 88 65 151 23 77 46 118 72 126 53 17 49 35 -21 87 -69 51
-75 102 -27 216 18 42 35 136 39 207 3 72 6 132 7 135 10 44 61 -10 61 -65z"/>
<path d="M292 4316 c-80 -92 -106 -256 -42 -256 21 0 30 21 30 71 0 51 -7 67
-25 57 -14 -8 -3 10 23 39 59 64 83 71 30 8 -34 -41 -32 -40 17 3 30 27 50 53
45 59 -14 13 51 83 77 83 11 0 3 -13 -18 -29 -37 -28 -34 -30 35 -30 88 -1
196 -114 196 -206 0 -36 11 -55 30 -55 64 0 37 154 -44 251 -108 130 -246 132
-354 5z"/>
<path d="M323 3828 c-2 -34 -9 -106 -16 -158 -9 -68 -7 -92 9 -83 14 9 24 -18
28 -82 l6 -95 115 -6 c99 -5 115 -1 117 30 1 20 6 63 12 96 24 153 28 310 8
310 -13 0 -22 -39 -22 -91 0 -142 -85 -125 -102 21 -11 94 -19 94 -27 0 -2
-22 -6 -56 -8 -75 -2 -20 -19 -35 -42 -35 -39 0 -41 6 -68 180 -6 42 -8 40
-10 -12z"/>
<path d="M120 3641 c0 -50 34 -71 70 -41 36 30 16 80 -32 80 -24 0 -38 -14
-38 -39z"/>
<path d="M727 3650 c-7 -18 -3 -42 9 -54 30 -30 88 -3 80 39 -9 46 -73 57 -89
15z"/>
<path d="M727 3490 c-7 -18 -3 -42 9 -54 30 -30 88 -3 80 39 -9 46 -73 57 -89
15z"/>
<path d="M240 3205 c-93 -151 -92 -145 -27 -145 46 0 68 17 112 90 51 85 59
90 142 90 83 0 90 -4 135 -90 42 -79 56 -90 115 -90 l68 0 -36 55 c-20 30 -58
89 -85 130 l-49 75 -153 -1 -152 0 -70 -114z"/>
<path d="M120 2960 c0 -80 0 -80 80 -80 80 0 80 0 80 80 0 80 0 80 -80 80 -80
0 -80 0 -80 -80z"/>
<path d="M649 2960 c1 -79 2 -80 76 -80 74 0 75 1 75 80 0 79 -1 80 -76 80
-76 0 -77 0 -75 -80z"/>
<path d="M543 2925 c-3 -143 -43 -213 -43 -75 0 49 -9 70 -30 70 -20 0 -30
-20 -30 -59 0 -72 -35 -98 -56 -42 -12 34 -21 19 -42 -76 -33 -148 -25 -186
43 -219 68 -33 72 -95 7 -112 -77 -19 -107 -212 -32 -212 22 0 40 -13 40 -30
0 -16 -13 -30 -30 -30 -33 0 -39 -80 -12 -150 24 -60 54 9 68 158 6 65 20 126
30 136 23 23 74 -150 57 -193 -24 -63 25 -147 59 -101 31 41 22 134 -13 147
-31 11 -21 63 12 63 54 0 31 185 -26 210 -62 27 -56 74 15 127 64 47 75 99 36
169 -13 24 -30 116 -37 204 l-13 160 -3 -145z"/>
<path d="M279 2200 c-19 -318 -19 -362 -1 -351 12 7 22 -33 26 -103 l6 -116
150 0 150 0 6 117 c4 84 13 114 32 107 19 -8 23 29 17 163 -8 176 -45 283 -45
130 0 -148 -20 -207 -70 -207 -50 0 -70 58 -71 207 0 119 -34 51 -42 -87 -7
-103 -10 -110 -62 -116 -54 -7 -55 -5 -55 110 -1 104 -36 231 -41 146z"/>
<path d="M692 1985 c9 -110 7 -165 -7 -165 -12 0 -24 -41 -28 -91 -6 -72 -1
-89 23 -84 37 7 56 447 20 483 -16 16 -18 -25 -8 -143z"/>
<path d="M224 1891 c4 -168 13 -240 31 -246 18 -6 25 19 25 83 0 52 -9 92 -21
92 -14 0 -20 50 -16 139 3 76 -1 146 -9 154 -9 8 -13 -92 -10 -222z"/>
<path d="M233 1407 c-7 -8 -13 -159 -13 -338 l0 -323 75 -93 c110 -135 213
-135 338 2 l87 94 0 332 c0 282 -5 332 -30 332 -34 0 -33 12 -30 -346 l2 -263
-79 -83 c-94 -99 -149 -99 -241 2 l-61 67 0 315 c-1 288 -9 340 -48 302z"/>
<path d="M304 1092 c-5 -382 93 -518 260 -358 l56 53 -4 292 c-2 172 -7 227
-11 135 -6 -150 -8 -156 -51 -144 -38 10 -39 9 -9 -10 38 -24 48 -80 15 -80
-12 0 -10 -17 5 -41 21 -33 20 -44 -5 -59 -20 -13 -22 -19 -5 -20 36 0 31 -74
-7 -88 -97 -37 -239 16 -193 72 18 22 18 35 1 52 -17 17 -16 30 2 51 17 21 17
33 2 43 -11 7 -19 24 -17 37 2 12 -2 37 -9 53 -7 17 -16 89 -20 160 -3 72 -8
5 -10 -148z"/>
<path d="M412 1050 c-32 -24 -34 -34 -11 -61 22 -27 22 -35 -2 -50 -24 -14
-22 -22 11 -47 37 -27 37 -30 5 -43 -80 -31 0 -81 93 -58 56 14 71 49 22 49
-16 0 -30 14 -30 30 0 17 14 30 30 30 17 0 30 9 30 20 0 11 -13 20 -30 20 -16
0 -30 9 -30 21 0 11 14 25 30 32 17 6 30 19 30 29 0 10 -13 18 -30 18 -16 0
-30 9 -30 20 0 29 -44 24 -88 -10z"/>
</g>
</svg>
