<?xml version="1.0" standalone="no"?>
<!DOCTYPE svg PUBLIC "-//W3C//DTD SVG 20010904//EN"
 "http://www.w3.org/TR/2001/REC-SVG-20010904/DTD/svg10.dtd">
<svg version="1.0" xmlns="http://www.w3.org/2000/svg"
 width="31.000000pt" height="141.000000pt" viewBox="0 0 31.000000 141.000000"
 preserveAspectRatio="xMidYMid meet">
<metadata>
Created by potrace 1.10, written by Peter Selinger 2001-2011
</metadata>
<g transform="translate(0.000000,141.000000) scale(0.050000,-0.050000)"
fill="#000000" stroke="none">
<path d="M214 2693 c-41 -63 -101 -203 -142 -334 l-72 -226 0 -641 0 -642 71
-380 c39 -209 75 -396 81 -415 9 -29 35 -35 154 -35 l144 0 76 405 76 405 -1
665 -1 666 -70 214 c-63 196 -186 425 -228 425 -9 0 -48 -48 -88 -107z m260
-403 c60 -164 89 -367 50 -342 -9 5 -14 39 -12 75 6 87 -82 360 -152 473 l-56
90 -51 -79 c-73 -109 -153 -356 -153 -471 0 -53 -9 -96 -20 -96 -69 0 48 428
163 594 l61 89 52 -76 c29 -43 82 -158 118 -257z m-114 -30 c48 -48 49 -58 9
-116 -33 -46 -97 -59 -119 -24 -7 12 -19 17 -27 12 -41 -25 -20 108 21 137 58
40 68 39 116 -9z m-80 -260 c0 -59 8 -80 31 -80 23 0 29 18 25 74 -5 59 2 76
31 82 30 6 36 -4 33 -59 -6 -103 -2 -117 29 -117 45 0 71 -66 71 -176 0 -83 6
-99 35 -97 32 3 35 -25 37 -317 2 -432 -19 -479 -33 -70 l-11 330 -4 -376 c-3
-247 3 -372 16 -364 11 7 20 2 20 -10 0 -13 -11 -20 -25 -15 -17 5 -28 73 -35
205 -7 131 -19 200 -35 205 -31 10 -36 405 -5 405 29 0 25 186 -5 226 -42 56
-251 53 -298 -5 -40 -49 -53 -221 -17 -221 12 0 20 -80 20 -200 0 -110 -8
-200 -18 -200 -45 0 10 -87 71 -113 60 -25 67 -36 67 -107 0 -80 -25 -107 -47
-50 -37 97 -99 30 -86 -93 7 -68 13 -216 13 -330 0 -194 3 -207 40 -207 29 0
40 13 40 50 0 42 9 50 60 50 51 0 60 -8 60 -50 0 -37 11 -50 40 -50 37 0 40
13 40 195 0 107 6 256 13 330 13 134 -47 207 -86 105 -16 -43 -41 -20 -35 34
2 25 5 56 6 69 2 29 142 113 142 85 0 -12 -27 -32 -60 -44 -38 -14 -60 -37
-60 -61 0 -30 11 -36 60 -29 l60 9 0 -281 c-1 -386 -9 -432 -83 -432 -47 0
-57 8 -57 50 0 37 -11 50 -41 50 -32 0 -40 -11 -35 -45 5 -38 -4 -46 -59 -51
l-65 -7 -4 252 c-9 504 -13 461 49 460 40 -1 55 9 55 35 0 20 -11 36 -24 36
-13 0 -44 20 -70 43 l-46 44 0 -184 c0 -234 -54 -275 -64 -48 -14 326 5 709
35 697 23 -8 29 11 29 92 0 105 38 176 93 176 19 0 27 28 27 90 0 67 8 90 30
90 22 0 30 -22 30 -80z m96 -524 c29 -29 32 -109 4 -126 -29 -18 -25 -125 5
-135 51 -17 -28 -77 -93 -71 -54 5 -62 13 -58 61 2 39 -4 51 -20 42 -15 -9
-14 -2 3 18 17 21 21 49 11 79 -22 65 -23 81 -4 121 20 40 116 47 152 11z
m-16 -769 c0 -106 -1 -107 -60 -107 -59 0 -60 1 -60 109 0 107 0 108 60 107
59 -2 60 -4 60 -109z m0 -197 c0 -42 -9 -50 -60 -50 -51 0 -60 8 -60 50 0 42
9 50 60 50 51 0 60 -8 60 -50z"/>
<path d="M254 2248 c-26 -27 -14 -104 19 -116 44 -17 90 25 83 76 -6 42 -74
68 -102 40z"/>
<path d="M68 1210 c0 -220 3 -313 7 -206 3 107 4 287 0 400 -4 113 -7 26 -7
-194z"/>
<path d="M100 1421 c0 -107 8 -181 20 -181 12 0 20 70 20 169 0 93 -9 174 -20
181 -13 8 -20 -53 -20 -169z"/>
<path d="M473 1587 c-21 -22 -15 -347 7 -347 12 0 20 73 20 180 0 180 -2 192
-27 167z"/>
<path d="M249 1459 c-17 -28 6 -119 30 -119 11 0 7 -35 -8 -78 -16 -43 -23
-84 -16 -90 19 -19 102 -14 115 8 7 11 3 20 -9 20 -26 0 -27 159 -2 199 12 19
11 39 -3 55 -25 31 -89 34 -107 5z"/>
<path d="M267 720 c4 -110 73 -150 73 -42 0 44 -8 58 -28 50 -19 -7 -32 5 -38
35 -6 26 -9 7 -7 -43z"/>
<path d="M260 510 c0 -17 18 -30 40 -30 22 0 40 13 40 30 0 17 -18 30 -40 30
-22 0 -40 -13 -40 -30z"/>
</g>
</svg>
