 <svg version="1.0" xmlns="http://www.w3.org/2000/svg"  width="117.000000pt" height="459.000000pt" viewBox="0 0 117.000000 459.000000"  preserveAspectRatio="xMidYMid meet">  <g transform="translate(0.000000,459.000000) scale(0.100000,-0.100000)" fill="#000000" stroke="none"> <path d="M547 4532 c-10 -10 -17 -23 -17 -29 0 -6 -7 -16 -15 -23 -8 -7 -15 -21 -15 -31 0 -30 -41 -100 -82 -138 -31 -29 -38 -43 -38 -73 0 -30 -5 -39 -27 -50 -16 -7 -29 -23 -31 -35 -2 -12 -10 -27 -18 -33 -8 -7 -14 -19 -14 -27 0 -15 -65 -119 -81 -129 -5 -3 -9 -13 -9 -24 0 -10 -7 -20 -15 -24 -9 -3 -15 -19 -15 -41 0 -19 -4 -35 -8 -35 -12 0 -82 -97 -82 -114 0 -7 -7 -19 -15 -26 -8 -7 -15 -17 -15 -22 0 -5 -11 -24 -25 -42 l-25 -33 0 -1296 c0 -853 3 -1298 10 -1302 6 -3 10 -14 10 -23 0 -9 14 -30 30 -46 17 -16 30 -34 30 -40 0 -7 13 -26 29 -43 19 -21 30 -46 35 -79 3 -27 11 -53 16 -58 6 -6 10 -33 10 -61 0 -27 7 -63 15 -79 8 -15 15 -48 15 -73 0 -25 6 -59 14 -76 8 -18 16 -57 19 -87 2 -30 8 -75 15 -100 6 -25 16 -70 22 -100 6 -30 13 -67 17 -83 3 -15 9 -29 13 -32 12 -8 536 -9 548 -1 7 4 12 29 12 55 0 27 7 65 15 84 8 20 15 57 15 82 0 26 5 55 10 66 6 10 14 49 17 87 3 37 12 76 19 87 8 11 14 43 14 71 0 28 7 65 15 80 8 16 15 50 15 75 0 54 28 115 92 200 16 20 28 40 28 43 0 15 45 66 57 66 11 0 13 230 13 1280 0 1140 -2 1280 -15 1280 -9 0 -19 10 -24 23 -5 12 -21 39 -35 60 -14 21 -26 44 -26 52 0 8 -6 18 -13 22 -6 4 -23 30 -35 56 -13 26 -35 55 -48 63 -14 9 -24 26 -24 39 0 12 -7 28 -15 35 -8 7 -15 23 -15 35 0 12 -7 28 -15 35 -8 7 -15 17 -15 22 0 6 -13 27 -30 48 -16 21 -30 47 -30 58 0 11 -7 25 -15 32 -8 7 -15 20 -15 28 0 9 -12 28 -26 43 -27 29 -45 56 -64 99 -6 14 -22 39 -36 57 -13 17 -24 39 -24 48 0 8 -7 18 -15 21 -8 4 -15 13 -15 20 0 16 -40 74 -50 74 -4 0 -14 -8 -23 -18z m461 -1398 c18 -20 32 -40 32 -44 0 -4 7 -10 15 -14 18 -7 20 -26 3 -26 -7 1 -28 21 -46 45 -39 53 -76 61 -92 20 -5 -14 -14 -25 -20 -25 -5 0 -10 -7 -10 -15 0 -7 -8 -18 -17 -24 -15 -8 -18 -24 -18 -95 0 -54 -4 -85 -10 -83 -12 4 -18 177 -6 177 4 0 27 27 51 60 52 71 72 76 118 24z m-868 -8 c0 -16 -18 -31 -27 -22 -8 8 5 36 17 36 5 0 10 -6 10 -14z m100 -6 c11 -11 20 -24 20 -29 0 -5 7 -11 15 -15 8 -3 15 -12 15 -20 0 -7 7 -16 15 -20 11 -4 15 -22 15 -74 0 -64 -2 -70 -30 -90 -18 -14 -44 -22 -67 -22 -28 0 -34 3 -23 10 8 5 24 10 34 10 40 0 56 29 56 100 0 51 -4 69 -15 74 -8 3 -15 12 -15 21 0 8 -7 15 -15 15 -8 0 -15 6 -15 14 0 8 -7 17 -16 20 -8 3 -12 10 -9 16 9 14 12 13 35 -10z m-130 -45 c0 -7 -7 -18 -16 -23 -12 -6 -17 -27 -20 -67 -5 -85 4 -115 32 -115 12 0 26 -4 29 -10 10 -16 -38 -11 -60 6 -17 13 -20 27 -21 96 0 68 3 85 20 104 24 27 36 30 36 9z m988 -110 c3 -63 1 -71 -23 -92 -18 -18 -34 -23 -58 -21 l-32 4 30 8 c50 14 55 23 55 103 0 55 3 74 13 71 7 -3 13 -29 15 -73z m-150 -109 c3 -3 -13 -6 -36 -6 -23 0 -42 5 -42 10 0 10 67 6 78 -4z m-454 -72 c3 -9 6 -81 6 -160 l0 -144 75 0 c69 0 76 2 85 23 8 21 9 21 9 -5 1 -39 -26 -49 -117 -46 l-77 3 0 155 c0 85 -4 161 -8 168 -20 31 -27 -11 -27 -164 l0 -164 -24 0 c-29 0 -42 15 -21 24 12 4 15 31 15 150 0 79 3 151 6 160 4 10 18 16 39 16 21 0 35 -6 39 -16z m238 -6 c10 -17 9 -107 -2 -133 -12 -29 -19 -5 -22 75 -3 62 -4 65 -27 62 -34 -3 -34 -4 -32 -66 0 -30 -4 -58 -9 -61 -15 -9 -13 113 3 131 14 17 76 12 89 -8z m-588 -288 l26 -9 2 -227 c2 -171 6 -228 16 -232 6 -2 12 5 12 15 1 29 94 125 114 117 21 -8 21 -23 -1 -31 -26 -9 -83 -65 -83 -80 0 -8 -7 -16 -16 -20 -12 -4 -15 -22 -13 -96 1 -74 -1 -91 -15 -99 -14 -8 -16 -47 -16 -392 l0 -383 -37 -6 c-40 -7 -53 -3 -53 17 0 8 10 11 30 8 l30 -4 2 383 c1 211 1 528 -1 704 -3 277 -5 322 -19 333 -19 15 -12 15 22 2z m900 0 l26 -10 -2 -711 c-3 -781 0 -741 -61 -725 -36 9 -34 26 3 26 l30 0 0 308 c1 849 -1 1097 -9 1105 -4 4 -19 -2 -33 -13 -36 -28 -45 -25 -17 5 27 28 29 28 63 15z m-294 -26 c0 -8 -9 -14 -20 -14 -19 0 -27 19 -14 33 10 9 34 -4 34 -19z m-666 -9 c-4 -8 -10 -15 -15 -15 -5 0 -9 7 -9 15 0 8 7 15 15 15 9 0 12 -6 9 -15z m264 -17 c-3 -7 -15 -14 -27 -16 -12 -2 -25 -10 -28 -18 -5 -14 -33 -20 -33 -7 0 4 12 17 28 30 29 24 66 31 60 11z m522 -38 c47 -48 63 -80 40 -80 -6 0 -13 7 -17 16 -9 24 -69 81 -93 89 -26 8 -26 25 0 25 10 0 42 -23 70 -50z m101 -47 c-9 -15 -10 -12 -10 17 0 29 1 32 10 18 7 -12 7 -24 0 -35z m-898 7 c3 -11 1 -23 -4 -26 -5 -3 -9 6 -9 20 0 31 6 34 13 6z m187 6 c0 -16 -18 -31 -27 -22 -8 8 5 36 17 36 5 0 10 -6 10 -14z m-28 -93 c3 -51 6 -58 27 -63 25 -6 42 -30 22 -30 -7 0 -27 7 -46 14 -34 14 -35 17 -35 69 0 29 3 57 7 60 16 16 22 3 25 -50z m725 15 c4 -7 8 -31 8 -53 0 -39 -1 -40 -23 -30 -19 8 -22 15 -18 39 4 16 6 35 6 42 0 17 16 18 27 2z m-69 -87 c10 -6 9 -10 -7 -14 -32 -8 -27 -56 9 -87 33 -27 38 -40 15 -40 -8 0 -15 5 -15 10 0 17 -39 50 -59 50 -25 0 -37 18 -18 26 8 3 17 18 21 35 6 30 27 38 54 20z m-100 -38 c3 -10 -45 -13 -217 -13 -202 0 -234 4 -214 24 4 3 101 5 217 4 157 -2 210 -6 214 -15z m192 -58 c0 -8 -4 -15 -10 -15 -5 0 -10 7 -10 15 0 8 5 15 10 15 6 0 10 -7 10 -15z m-20 -74 c0 -11 6 -21 13 -23 8 -3 12 -29 12 -84 0 -102 -6 -117 -38 -101 -23 10 -24 13 -11 31 19 27 18 117 -1 142 -21 28 -19 54 5 54 13 0 20 -7 20 -19z m-600 -191 c10 -6 15 -25 15 -57 l0 -48 198 -3 197 -2 0 59 0 59 55 1 c53 0 79 -11 50 -23 -9 -3 -15 -18 -15 -36 0 -29 1 -30 50 -30 39 0 50 4 50 16 0 8 5 12 10 9 8 -5 7 -11 0 -20 -7 -8 -11 -29 -9 -47 2 -39 -10 -88 -22 -88 -10 0 -11 6 -13 60 -1 26 -6 35 -21 38 -60 9 -64 12 -72 53 -11 57 -27 49 -33 -18 l-5 -58 -220 0 -220 0 -3 59 -3 58 -38 -6 c-37 -6 -71 11 -54 27 10 10 86 8 103 -3z m-72 -87 c-2 -11 -12 -18 -26 -18 -12 0 -27 -7 -32 -15 -13 -20 -1 -113 16 -123 8 -4 14 -13 14 -20 0 -16 40 -53 68 -61 26 -9 30 -26 5 -26 -24 0 -103 71 -103 92 0 8 -6 21 -14 27 -9 7 -13 35 -14 81 l0 69 31 4 c18 2 38 5 45 5 8 1 12 -5 10 -15z m632 -156 c0 -7 -8 -20 -17 -29 -10 -10 -31 -31 -48 -48 -29 -29 -65 -40 -65 -20 0 6 8 14 18 18 30 11 82 59 82 75 0 7 3 17 6 20 9 9 24 -1 24 -16z m-447 -141 c24 -31 27 -44 27 -105 0 -67 -14 -102 -26 -64 -3 10 -13 31 -21 47 -15 27 -15 30 1 41 36 27 9 84 -41 85 -31 0 -54 11 -47 21 3 5 22 9 42 9 30 0 42 -6 65 -34z m301 25 c6 -10 -26 -21 -61 -21 -12 0 -27 -9 -33 -20 -12 -22 -30 -27 -30 -9 0 26 45 59 82 59 20 0 39 -4 42 -9z m-346 -63 c7 -7 12 -15 12 -18 0 -3 -40 -4 -90 -2 l-90 4 0 -163 c1 -132 4 -168 16 -184 13 -16 15 -49 14 -180 -3 -268 -5 -255 30 -255 l29 0 3 72 c2 46 7 73 16 76 9 3 12 -15 12 -68 l0 -72 60 -66 61 -66 -3 -60 c-2 -36 -8 -61 -15 -64 -10 -3 -13 14 -13 61 0 63 -1 66 -45 112 -42 46 -47 48 -102 49 l-58 1 -3 215 c-2 177 -5 217 -17 226 -12 9 -15 44 -15 196 0 102 3 188 7 191 12 12 178 8 191 -5z m471 3 c11 -7 13 -44 12 -181 -1 -95 -6 -181 -12 -191 -5 -10 -9 -109 -9 -220 0 -240 0 -239 -92 -239 -32 0 -58 -4 -58 -10 0 -14 -33 -50 -46 -50 -18 0 -23 -48 -17 -149 7 -124 2 -141 -42 -141 -29 0 -35 4 -35 21 0 19 1 19 16 4 9 -9 21 -12 25 -8 5 5 10 67 11 137 2 93 6 130 15 133 7 3 13 9 13 14 0 10 37 49 46 49 3 0 14 10 25 23 25 30 27 122 2 136 -10 5 -15 13 -11 17 4 4 20 -5 34 -19 18 -19 25 -33 21 -48 -3 -12 -3 -35 0 -50 4 -24 11 -29 34 -29 l29 0 0 224 c0 190 2 225 15 230 12 4 15 32 15 166 l0 160 -90 0 c-80 0 -90 -2 -90 -18 0 -10 -5 -23 -11 -29 -6 -6 -16 -21 -23 -34 -16 -32 -31 -29 -34 9 -2 21 1 32 10 32 7 0 26 16 42 35 29 35 30 35 110 35 45 0 87 -4 95 -9z m81 -57 c0 -8 -4 -14 -10 -14 -5 0 -10 9 -10 21 0 11 5 17 10 14 6 -3 10 -13 10 -21z m-899 -161 c7 -19 7 -34 0 -48 -6 -11 -12 -29 -14 -40 -3 -11 -3 -2 -1 20 2 22 -1 47 -6 54 -7 13 -3 41 6 41 3 0 9 -12 15 -27z m465 -147 c0 0 5 -18 10 -39 12 -50 28 -52 32 -5 4 44 23 62 56 54 29 -7 36 -30 36 -123 0 -101 -13 -113 -119 -113 -63 0 -80 3 -85 16 -8 22 -8 209 1 218 5 5 66 -1 69 -8z m144 -266 c21 -13 2 -17 -110 -23 -92 -5 -137 4 -125 24 8 12 215 12 235 -1z m-130 -320 c-7 -12 -8 -34 -4 -53 10 -47 11 -140 2 -159 -11 -23 -73 -25 -82 -2 -10 25 -7 92 4 99 6 4 10 -12 10 -40 0 -32 5 -47 15 -52 9 -3 18 -4 20 -1 2 2 5 53 6 114 1 105 12 145 32 125 5 -5 4 -17 -3 -31z m58 -19 c7 -90 -22 -93 -30 -3 -4 45 -3 52 11 50 11 -2 17 -16 19 -47z"/> <path d="M500 951 c0 -103 2 -105 91 -95 l58 6 3 77 c4 87 1 101 -18 101 -10 0 -14 -14 -14 -52 0 -43 -5 -57 -24 -75 -28 -27 -30 -28 -50 -7 -11 10 -16 34 -16 75 0 46 -3 59 -15 59 -12 0 -15 -17 -15 -89z"/> <path d="M566 953 c-12 -12 -6 -33 9 -33 8 0 15 6 15 14 0 17 -14 28 -24 19z"/> </g> </svg> 