<?xml version="1.0" standalone="no"?>
<!DOCTYPE svg PUBLIC "-//W3C//DTD SVG 20010904//EN"
 "http://www.w3.org/TR/2001/REC-SVG-20010904/DTD/svg10.dtd">
<svg version="1.0" xmlns="http://www.w3.org/2000/svg"
 width="29.000000pt" height="104.000000pt" viewBox="0 0 29.000000 104.000000"
 preserveAspectRatio="xMidYMid meet">
<metadata>
Created by potrace 1.10, written by Peter Selinger 2001-2011
</metadata>
<g transform="translate(0.000000,104.000000) scale(0.050000,-0.050000)"
fill="#000000" stroke="none">
<path d="M201 1895 c-195 -410 -189 -371 -182 -1123 5 -695 -6 -647 167 -727
l102 -47 101 43 c178 76 167 29 173 761 5 735 7 721 -173 1080 -108 215 -92
214 -188 13z m71 -505 c-11 -110 -8 -130 18 -130 26 0 29 20 18 130 l-14 130
53 0 c52 0 53 -2 53 -136 0 -121 6 -143 59 -205 96 -112 76 -237 -38 -240 -49
-1 -50 -2 -7 -19 103 -42 136 -480 36 -480 -42 0 -50 -9 -50 -60 0 -59 -1 -60
-110 -60 -109 0 -110 1 -110 60 0 51 -8 60 -50 60 -100 0 -67 438 36 480 43
17 42 18 -7 19 -115 3 -138 136 -39 231 56 54 60 67 60 204 0 144 1 146 53
146 l53 0 -14 -130z m105 -1157 c4 -38 -9 -73 -39 -105 l-45 -48 -47 43 c-44
42 -62 134 -32 165 41 41 156 2 163 -55z"/>
<path d="M212 1358 c12 -120 11 -123 -62 -198 -132 -135 -103 -170 140 -170
243 0 272 35 140 170 -73 75 -74 78 -62 198 7 76 4 122 -8 122 -24 0 -26 -18
-21 -155 4 -101 2 -105 -49 -105 -51 0 -53 4 -49 105 5 137 3 155 -21 155 -12
0 -15 -46 -8 -122z"/>
<path d="M144 876 c-46 -46 -32 -416 16 -416 31 0 40 -13 40 -60 0 -58 3 -60
90 -60 87 0 90 2 90 60 0 47 9 60 40 60 37 0 40 13 40 196 0 234 -7 244 -170
244 -68 0 -133 -11 -146 -24z m292 -193 c8 -131 -16 -163 -122 -163 l-81 0 47
-50 c75 -79 28 -58 -60 28 -72 70 -80 87 -80 176 0 127 3 129 159 122 l131 -6
6 -107z"/>
<path d="M180 670 l0 -110 110 0 110 0 0 110 0 110 -110 0 -110 0 0 -110z"/>
<path d="M220 228 c0 -17 16 -52 35 -77 l36 -45 34 46 c56 74 45 108 -35 108
-51 0 -70 -9 -70 -32z"/>
</g>
</svg>
