<?xml version="1.0" standalone="no"?>
<!DOCTYPE svg PUBLIC "-//W3C//DTD SVG 20010904//EN"
 "http://www.w3.org/TR/2001/REC-SVG-20010904/DTD/svg10.dtd">
<svg version="1.0" xmlns="http://www.w3.org/2000/svg"
 width="30.000000pt" height="160.000000pt" viewBox="0 0 30.000000 160.000000"
 preserveAspectRatio="xMidYMid meet">
<metadata>
Created by potrace 1.10, written by Peter Selinger 2001-2011
</metadata>
<g transform="translate(0.000000,160.000000) scale(0.050000,-0.050000)"
fill="#000000" stroke="none">
<path d="M176 3140 c-159 -100 -156 -83 -156 -884 1 -388 11 -791 23 -896 12
-104 20 -335 18 -512 -3 -310 -2 -323 38 -334 55 -14 59 -235 6 -345 -42 -88
-2 -136 133 -159 175 -29 305 48 266 158 -37 100 -32 352 7 352 26 0 30 46 28
335 -1 184 7 403 19 485 31 224 28 1617 -4 1680 -27 54 -205 180 -254 180 -16
-1 -72 -27 -124 -60z m269 -482 c51 -61 51 -489 0 -613 l-35 -85 -115 0 c-96
0 -115 6 -116 35 0 19 -13 52 -30 74 -45 60 -41 525 6 585 72 91 216 93 290 4z
m-48 -897 c3 -24 -9 -62 -28 -83 -20 -21 -25 -38 -12 -38 40 0 51 -98 15 -138
-30 -32 -30 -39 -3 -62 40 -32 40 -88 0 -120 -27 -23 -27 -30 3 -62 35 -38 25
-138 -13 -138 -11 0 -5 -23 13 -51 28 -41 29 -60 10 -102 -14 -31 -16 -61 -5
-74 9 -13 16 -63 15 -113 l-2 -90 -87 -6 -87 -6 6 126 c3 69 -1 147 -10 172
-10 31 -5 62 17 95 17 27 23 49 13 49 -37 0 -46 81 -14 129 27 41 27 50 1 72
-37 30 -37 87 -1 118 25 20 24 31 -4 81 -31 53 -31 59 4 98 34 37 34 43 4 73
-38 38 -41 71 -7 113 56 70 159 45 172 -43z m-61 -1185 c29 -29 33 -471 4
-516 -55 -86 -90 6 -96 249 -6 264 20 339 92 267z"/>
<path d="M227 2680 c-67 -27 -71 -47 -71 -310 0 -322 18 -370 144 -370 136 1
166 76 157 389 -9 291 -62 359 -230 291z"/>
<path d="M248 1791 c-19 -49 1 -100 41 -108 53 -10 96 51 70 100 -24 44 -96
49 -111 8z"/>
<path d="M263 1622 c-47 -29 -20 -112 37 -112 37 0 52 12 57 48 6 41 -23 81
-57 81 -5 0 -22 -7 -37 -17z"/>
<path d="M270 1432 c-48 -34 -30 -100 28 -109 54 -7 82 24 68 78 -13 48 -54
62 -96 31z"/>
<path d="M253 1247 c-39 -40 0 -127 57 -127 35 0 67 68 49 101 -20 38 -79 52
-106 26z"/>
<path d="M253 1067 c-21 -22 -15 -84 12 -128 21 -33 20 -44 -5 -60 -25 -16
-25 -22 -3 -37 23 -14 23 -19 0 -28 -22 -9 -22 -15 3 -34 23 -17 24 -26 5 -33
-46 -19 -25 -47 35 -47 60 0 81 28 35 47 -19 7 -18 15 5 31 25 18 25 25 3 40
-23 14 -23 19 0 28 22 9 22 15 -3 32 -26 18 -26 27 4 77 48 81 -27 175 -91
112z"/>
<path d="M280 310 c0 -141 8 -250 19 -250 28 0 36 55 32 230 -6 243 -9 270
-31 270 -12 0 -20 -97 -20 -250z"/>
</g>
</svg>
